# xmcd CD database file
#
# Track frame offsets:
#	150
#	21880
#	40553
#	62268
#
# Disc length: 1077 seconds
#
# Revision: 0
# Processed by: cddbd v1.5.1PL0 Copyright (c) Steve Scherf et al.
# Submitted via: CDex 1.51
#
DISCID=22043304
DTITLE=久川綾,三石琴乃,井上喜久子,菊池志穂,丹下桜 - 電脳戦隊ヴギィ’ズ☆エンジェル
DYEAR=1997
DGENRE=Anime
TTITLE0=もっともっとRadical Fight![ニューバージョン]
TTITLE1=がんばれ!男の子
TTITLE2=もっともっとRadical Fight![ニューバージョン](カラオケ)
TTITLE3=がんばれ!男の子(カラオケ)
EXTD=YEAR: 1997
EXTT0=
EXTT1=
EXTT2=
EXTT3=
PLAYORDER=
